<svg xmlns="http://www.w3.org/2000/svg" width="500" zoomAndPan="magnify" viewBox="0 0 375 374.999991" height="500"
     preserveAspectRatio="xMidYMid meet" version="1.0">
    <defs>
        <g/>
        <clipPath id="4ddad264e9">
            <path d="M 126.382812 81.097656 L 248.632812 81.097656 L 248.632812 164 L 126.382812 164 Z M 126.382812 81.097656 "
                  clip-rule="nonzero"/>
        </clipPath>
        <clipPath id="f2cd5dbc60">
            <path d="M 139 175 L 236 175 L 236 203.347656 L 139 203.347656 Z M 139 175 " clip-rule="nonzero"/>
        </clipPath>
    </defs>
    <rect x="-37.5" width="450" fill="#ffffff" y="-37.499999" height="449.999989" fill-opacity="1"/>
    <rect x="-37.5" width="450" fill="#ffffff" y="-37.499999" height="449.999989" fill-opacity="1"/>
    <rect x="-37.5" width="450" fill="#fefdf9" y="-37.499999" height="449.999989" fill-opacity="1"/>
    <path fill="#a58d4e"
          d="M 187.507812 173.464844 C 191.234375 170.675781 204.335938 162.417969 223.175781 167.597656 C 230.761719 169.683594 236.8125 170.617188 241.496094 170.9375 C 241.707031 170.542969 241.914062 170.144531 242.117188 169.742188 C 236.625 169.417969 230.386719 168.308594 223.5 166.414062 C 219.359375 165.277344 215.199219 164.699219 211.136719 164.699219 C 199.316406 164.699219 191.042969 169.445312 187.507812 171.9375 C 183.976562 169.445312 175.703125 164.699219 163.882812 164.699219 C 159.816406 164.699219 155.65625 165.277344 151.519531 166.414062 C 144.632812 168.308594 138.394531 169.417969 132.902344 169.742188 C 133.105469 170.144531 133.3125 170.542969 133.523438 170.9375 C 138.207031 170.617188 144.257812 169.683594 151.84375 167.597656 C 170.679688 162.417969 183.785156 170.675781 187.507812 173.464844 "
          fill-opacity="1" fill-rule="nonzero"/>
    <g clip-path="url(#4ddad264e9)">
        <path fill="#7e7b7c"
              d="M 161.160156 148.8125 C 174.792969 144.097656 184.402344 151.238281 187.507812 154.0625 C 190.617188 151.238281 200.226562 144.097656 213.859375 148.8125 C 230.613281 154.605469 237.324219 150.925781 237.324219 150.925781 L 234.953125 159.597656 C 230.3125 159.207031 225.085938 158.117188 219.351562 156.335938 C 215.65625 155.191406 211.945312 154.613281 208.320312 154.613281 C 198.050781 154.613281 190.789062 159.136719 187.507812 161.691406 C 184.226562 159.136719 176.964844 154.613281 166.699219 154.613281 C 163.074219 154.613281 159.359375 155.191406 155.667969 156.335938 C 149.933594 158.117188 144.703125 159.207031 140.066406 159.597656 L 137.695312 150.925781 C 137.695312 150.925781 144.40625 154.605469 161.160156 148.8125 Z M 148.289062 137.890625 L 150.894531 139.21875 L 152.964844 137.152344 L 152.507812 140.042969 L 155.117188 141.375 L 152.222656 141.832031 L 151.765625 144.722656 L 150.4375 142.113281 L 147.542969 142.570312 L 149.617188 140.5 Z M 157.089844 118.035156 L 161.105469 120.625 L 164.808594 117.605469 L 163.585938 122.222656 L 167.601562 124.8125 L 162.832031 125.078125 L 161.613281 129.695312 L 159.886719 125.242188 L 155.117188 125.507812 L 158.816406 122.492188 Z M 185.097656 109.519531 L 187.507812 102.09375 L 189.921875 109.519531 L 197.722656 109.519531 L 191.410156 114.105469 L 193.824219 121.527344 L 187.507812 116.941406 L 181.195312 121.527344 L 183.609375 114.105469 L 177.292969 109.519531 Z M 210.210938 117.605469 L 213.914062 120.625 L 217.929688 118.035156 L 216.199219 122.492188 L 219.902344 125.507812 L 215.132812 125.242188 L 213.40625 129.695312 L 212.183594 125.078125 L 207.417969 124.8125 L 211.429688 122.222656 Z M 224.125 139.21875 L 226.730469 137.890625 L 225.402344 140.5 L 227.476562 142.570312 L 224.582031 142.113281 L 223.253906 144.722656 L 222.796875 141.832031 L 219.902344 141.375 L 222.511719 140.042969 L 222.050781 137.152344 Z M 156.035156 157.511719 C 172.519531 152.394531 184.050781 160.390625 187.507812 163.273438 C 190.96875 160.390625 202.5 152.394531 218.984375 157.511719 C 235.195312 162.542969 243.488281 160.863281 245.996094 160.074219 C 247.714844 154.429688 248.640625 148.441406 248.640625 142.238281 C 248.640625 108.472656 221.273438 81.101562 187.507812 81.101562 C 153.746094 81.101562 126.378906 108.472656 126.378906 142.238281 C 126.378906 148.441406 127.304688 154.429688 129.023438 160.074219 C 131.53125 160.863281 139.820312 162.542969 156.035156 157.511719 "
              fill-opacity="1" fill-rule="nonzero"/>
    </g>
    <g clip-path="url(#f2cd5dbc60)">
        <path fill="#a58d4e"
              d="M 223.5 176.851562 C 219.359375 175.714844 215.199219 175.136719 211.136719 175.136719 C 199.316406 175.136719 191.042969 179.882812 187.507812 182.378906 C 183.976562 179.882812 175.703125 175.136719 163.882812 175.136719 C 159.816406 175.136719 155.65625 175.714844 151.519531 176.851562 C 147.09375 178.070312 142.9375 178.960938 139.074219 179.535156 C 150.253906 194.027344 167.789062 203.371094 187.507812 203.371094 C 207.230469 203.371094 224.765625 194.027344 235.945312 179.535156 C 232.082031 178.960938 227.925781 178.070312 223.5 176.851562 "
              fill-opacity="1" fill-rule="nonzero"/>
    </g>
    <g fill="#4d4a4b" fill-opacity="1">
        <g transform="translate(93.597655, 237.685648)">
            <g>
                <path d="M 2.1875 -0.296875 C 2.707031 -0.296875 3.148438 -0.476562 3.515625 -0.84375 C 3.890625 -1.21875 4.085938 -1.664062 4.109375 -2.1875 L 4.109375 -18.8125 C 4.085938 -19.332031 3.890625 -19.773438 3.515625 -20.140625 C 3.148438 -20.515625 2.707031 -20.703125 2.1875 -20.703125 L 1.796875 -20.703125 L 1.796875 -21 L 8.375 -21 L 8.375 -20.703125 L 7.984375 -20.703125 C 7.265625 -20.703125 6.710938 -20.390625 6.328125 -19.765625 C 6.148438 -19.460938 6.0625 -19.144531 6.0625 -18.8125 L 6.0625 -0.9375 L 10.34375 -0.9375 C 11.820312 -0.9375 12.953125 -1.265625 13.734375 -1.921875 C 14.515625 -2.578125 15.164062 -3.554688 15.6875 -4.859375 L 15.984375 -4.859375 L 14.25 0 L 1.796875 0 L 1.796875 -0.296875 Z M 2.1875 -0.296875 "/>
            </g>
        </g>
    </g>
    <g fill="#4d4a4b" fill-opacity="1">
        <g transform="translate(110.457638, 237.685648)">
            <g>
                <path d="M 2.1875 -0.296875 C 2.707031 -0.296875 3.148438 -0.476562 3.515625 -0.84375 C 3.890625 -1.21875 4.085938 -1.664062 4.109375 -2.1875 L 4.109375 -18.84375 C 4.085938 -19.363281 3.890625 -19.800781 3.515625 -20.15625 C 3.148438 -20.519531 2.707031 -20.703125 2.1875 -20.703125 L 1.796875 -20.703125 L 1.796875 -21 L 8.375 -21 L 8.375 -20.703125 L 7.984375 -20.703125 C 7.460938 -20.703125 7.015625 -20.519531 6.640625 -20.15625 C 6.273438 -19.800781 6.082031 -19.363281 6.0625 -18.84375 L 6.0625 -2.1875 C 6.0625 -1.664062 6.25 -1.21875 6.625 -0.84375 C 7.007812 -0.476562 7.460938 -0.296875 7.984375 -0.296875 L 8.375 -0.296875 L 8.375 0 L 1.796875 0 L 1.796875 -0.296875 Z M 2.1875 -0.296875 "/>
            </g>
        </g>
    </g>
    <g fill="#4d4a4b" fill-opacity="1">
        <g transform="translate(120.59763, 237.685648)">
            <g>
                <path d="M 2.1875 -0.296875 C 2.707031 -0.296875 3.148438 -0.476562 3.515625 -0.84375 C 3.890625 -1.21875 4.085938 -1.664062 4.109375 -2.1875 L 4.109375 -18.8125 C 4.085938 -19.332031 3.890625 -19.773438 3.515625 -20.140625 C 3.148438 -20.515625 2.707031 -20.703125 2.1875 -20.703125 L 1.796875 -20.703125 L 1.796875 -21 L 8.375 -21 L 8.375 -20.703125 L 7.984375 -20.703125 C 7.265625 -20.703125 6.710938 -20.390625 6.328125 -19.765625 C 6.148438 -19.460938 6.0625 -19.144531 6.0625 -18.8125 L 6.0625 -0.9375 L 10.34375 -0.9375 C 11.820312 -0.9375 12.953125 -1.265625 13.734375 -1.921875 C 14.515625 -2.578125 15.164062 -3.554688 15.6875 -4.859375 L 15.984375 -4.859375 L 14.25 0 L 1.796875 0 L 1.796875 -0.296875 Z M 2.1875 -0.296875 "/>
            </g>
        </g>
    </g>
    <g fill="#4d4a4b" fill-opacity="1">
        <g transform="translate(137.457613, 237.685648)">
            <g>
                <path d="M 20.1875 -20.703125 L 19.765625 -20.703125 C 19.171875 -20.703125 18.609375 -20.535156 18.078125 -20.203125 C 17.546875 -19.867188 17.097656 -19.453125 16.734375 -18.953125 L 10.828125 -9.359375 L 10.828125 -2.1875 C 10.828125 -1.664062 11.007812 -1.21875 11.375 -0.84375 C 11.75 -0.476562 12.207031 -0.296875 12.75 -0.296875 L 13.109375 -0.296875 L 13.109375 0 L 6.578125 0 L 6.578125 -0.296875 L 6.96875 -0.296875 C 7.476562 -0.296875 7.914062 -0.472656 8.28125 -0.828125 C 8.65625 -1.191406 8.851562 -1.632812 8.875 -2.15625 L 8.875 -9.390625 L 3.15625 -18.953125 C 2.851562 -19.441406 2.425781 -19.851562 1.875 -20.1875 C 1.320312 -20.53125 0.75 -20.703125 0.15625 -20.703125 L -0.265625 -20.703125 L -0.265625 -21 L 7.109375 -21 L 7.109375 -20.703125 L 6.71875 -20.703125 C 6.28125 -20.703125 5.941406 -20.5 5.703125 -20.09375 C 5.578125 -19.875 5.515625 -19.660156 5.515625 -19.453125 C 5.515625 -19.242188 5.566406 -19.039062 5.671875 -18.84375 L 10.171875 -10.4375 L 14.96875 -18.875 C 15.070312 -19.070312 15.125 -19.269531 15.125 -19.46875 C 15.125 -19.664062 15.050781 -19.875 14.90625 -20.09375 C 14.664062 -20.5 14.328125 -20.703125 13.890625 -20.703125 L 13.53125 -20.703125 L 13.53125 -21 L 20.1875 -21 Z M 20.1875 -20.703125 "/>
            </g>
        </g>
    </g>
    <g fill="#4d4a4b" fill-opacity="1">
        <g transform="translate(157.287591, 237.685648)">
            <g/>
        </g>
    </g>
    <g fill="#4d4a4b" fill-opacity="1">
        <g transform="translate(164.787579, 237.685648)">
            <g>
                <path d="M 15.8125 -15.203125 C 15.8125 -14.328125 15.628906 -13.507812 15.265625 -12.75 C 14.609375 -11.332031 13.453125 -10.34375 11.796875 -9.78125 C 11.210938 -9.582031 10.710938 -9.484375 10.296875 -9.484375 C 9.054688 -9.484375 7.984375 -9.710938 7.078125 -10.171875 L 7.078125 -10.46875 C 8.535156 -10.144531 9.882812 -10.304688 11.125 -10.953125 C 12.226562 -11.515625 12.976562 -12.429688 13.375 -13.703125 C 13.5 -14.109375 13.5625 -14.488281 13.5625 -14.84375 C 13.5625 -15.207031 13.5625 -15.429688 13.5625 -15.515625 C 13.519531 -16.910156 13.148438 -18.019531 12.453125 -18.84375 C 11.753906 -19.675781 10.773438 -20.09375 9.515625 -20.09375 L 6.0625 -20.09375 L 6.0625 -2.1875 C 6.082031 -1.664062 6.273438 -1.21875 6.640625 -0.84375 C 7.015625 -0.476562 7.460938 -0.296875 7.984375 -0.296875 L 8.375 -0.296875 L 8.375 0 L 1.796875 0 L 1.796875 -0.296875 L 2.1875 -0.296875 C 2.707031 -0.296875 3.148438 -0.476562 3.515625 -0.84375 C 3.890625 -1.21875 4.085938 -1.664062 4.109375 -2.1875 L 4.109375 -18.953125 C 4.046875 -19.453125 3.832031 -19.867188 3.46875 -20.203125 C 3.113281 -20.535156 2.6875 -20.703125 2.1875 -20.703125 L 1.828125 -20.703125 L 1.796875 -21 L 9.625 -21 C 11.550781 -21 13.0625 -20.484375 14.15625 -19.453125 C 15.257812 -18.421875 15.8125 -17.003906 15.8125 -15.203125 Z M 15.8125 -15.203125 "/>
            </g>
        </g>
    </g>
    <g fill="#4d4a4b" fill-opacity="1">
        <g transform="translate(182.097556, 237.685648)">
            <g>
                <path d="M 2.1875 -0.296875 C 2.707031 -0.296875 3.148438 -0.476562 3.515625 -0.84375 C 3.890625 -1.21875 4.085938 -1.664062 4.109375 -2.1875 L 4.109375 -18.8125 C 4.085938 -19.332031 3.890625 -19.773438 3.515625 -20.140625 C 3.148438 -20.515625 2.707031 -20.703125 2.1875 -20.703125 L 1.796875 -20.703125 L 1.796875 -21 L 8.375 -21 L 8.375 -20.703125 L 7.984375 -20.703125 C 7.265625 -20.703125 6.710938 -20.390625 6.328125 -19.765625 C 6.148438 -19.460938 6.0625 -19.144531 6.0625 -18.8125 L 6.0625 -0.9375 L 10.34375 -0.9375 C 11.820312 -0.9375 12.953125 -1.265625 13.734375 -1.921875 C 14.515625 -2.578125 15.164062 -3.554688 15.6875 -4.859375 L 15.984375 -4.859375 L 14.25 0 L 1.796875 0 L 1.796875 -0.296875 Z M 2.1875 -0.296875 "/>
            </g>
        </g>
    </g>
    <g fill="#4d4a4b" fill-opacity="1">
        <g transform="translate(198.95754, 237.685648)">
            <g>
                <path d="M 21.484375 -0.296875 L 21.71875 -0.296875 L 21.71875 0 L 14.96875 0 L 14.96875 -0.296875 L 15.234375 -0.296875 C 15.660156 -0.296875 15.976562 -0.429688 16.1875 -0.703125 C 16.394531 -0.972656 16.5 -1.226562 16.5 -1.46875 C 16.5 -1.707031 16.457031 -1.945312 16.375 -2.1875 L 14.46875 -7.296875 L 6.359375 -7.296875 L 4.34375 -2.15625 C 4.269531 -1.914062 4.234375 -1.679688 4.234375 -1.453125 C 4.234375 -1.222656 4.335938 -0.972656 4.546875 -0.703125 C 4.753906 -0.429688 5.066406 -0.296875 5.484375 -0.296875 L 5.765625 -0.296875 L 5.765625 0 L -0.265625 0 L -0.265625 -0.296875 L 0 -0.296875 C 0.5 -0.296875 0.988281 -0.457031 1.46875 -0.78125 C 1.945312 -1.101562 2.335938 -1.570312 2.640625 -2.1875 L 9.421875 -18.328125 C 10.160156 -19.953125 10.53125 -20.984375 10.53125 -21.421875 L 10.796875 -21.421875 L 18.84375 -2.1875 C 19.125 -1.570312 19.503906 -1.101562 19.984375 -0.78125 C 20.460938 -0.457031 20.960938 -0.296875 21.484375 -0.296875 Z M 6.71875 -8.1875 L 14.09375 -8.1875 L 10.5 -17.8125 Z M 6.71875 -8.1875 "/>
            </g>
        </g>
    </g>
    <g fill="#4d4a4b" fill-opacity="1">
        <g transform="translate(220.317524, 237.685648)">
            <g>
                <path d="M 23.34375 -20.703125 C 22.84375 -20.703125 22.410156 -20.523438 22.046875 -20.171875 C 21.691406 -19.828125 21.503906 -19.40625 21.484375 -18.90625 L 21.484375 -3.421875 C 21.484375 -2.265625 21.550781 -1.164062 21.6875 -0.125 L 21.75 0.421875 L 21.484375 0.421875 L 5.125 -17.046875 L 5.125 -2.09375 C 5.144531 -1.394531 5.457031 -0.878906 6.0625 -0.546875 C 6.34375 -0.378906 6.640625 -0.296875 6.953125 -0.296875 L 7.53125 -0.296875 L 7.53125 0 L 1.34375 0 L 1.34375 -0.296875 L 1.921875 -0.296875 C 2.421875 -0.296875 2.847656 -0.46875 3.203125 -0.8125 C 3.566406 -1.164062 3.75 -1.601562 3.75 -2.125 L 3.75 -17.703125 C 3.75 -18.921875 3.679688 -20.007812 3.546875 -20.96875 L 3.484375 -21.453125 L 3.78125 -21.453125 L 20.125 -3.984375 L 20.125 -18.875 C 20.101562 -19.394531 19.910156 -19.828125 19.546875 -20.171875 C 19.191406 -20.523438 18.765625 -20.703125 18.265625 -20.703125 L 17.703125 -20.703125 L 17.703125 -21 L 23.875 -21 L 23.875 -20.703125 Z M 23.34375 -20.703125 "/>
            </g>
        </g>
    </g>
    <g fill="#4d4a4b" fill-opacity="1">
        <g transform="translate(245.547499, 237.685648)">
            <g>
                <path d="M 2.1875 -0.296875 C 2.707031 -0.296875 3.148438 -0.476562 3.515625 -0.84375 C 3.890625 -1.21875 4.085938 -1.664062 4.109375 -2.1875 L 4.109375 -18.984375 C 4.046875 -19.460938 3.832031 -19.867188 3.46875 -20.203125 C 3.113281 -20.535156 2.6875 -20.703125 2.1875 -20.703125 L 1.828125 -20.703125 L 1.796875 -21 L 10.59375 -21 C 11.207031 -21 11.878906 -21.054688 12.609375 -21.171875 C 13.335938 -21.296875 13.851562 -21.421875 14.15625 -21.546875 L 14.15625 -17.765625 L 13.859375 -17.765625 L 13.859375 -18.296875 C 13.859375 -18.773438 13.691406 -19.1875 13.359375 -19.53125 C 13.035156 -19.875 12.644531 -20.050781 12.1875 -20.0625 L 6.0625 -20.0625 L 6.0625 -10.796875 L 11.125 -10.796875 C 11.53125 -10.816406 11.867188 -10.96875 12.140625 -11.25 C 12.421875 -11.53125 12.5625 -11.878906 12.5625 -12.296875 L 12.5625 -12.71875 L 12.875 -12.71875 L 12.875 -7.984375 L 12.5625 -7.984375 L 12.5625 -8.4375 C 12.5625 -8.832031 12.425781 -9.171875 12.15625 -9.453125 C 11.894531 -9.734375 11.5625 -9.882812 11.15625 -9.90625 L 6.0625 -9.90625 L 6.0625 -0.9375 L 10.34375 -0.9375 C 11.820312 -0.9375 12.953125 -1.265625 13.734375 -1.921875 C 14.515625 -2.578125 15.164062 -3.554688 15.6875 -4.859375 L 15.984375 -4.859375 L 14.25 0 L 1.796875 0 L 1.796875 -0.296875 Z M 2.1875 -0.296875 "/>
            </g>
        </g>
    </g>
    <g fill="#4d4a4b" fill-opacity="1">
        <g transform="translate(262.857476, 237.685648)">
            <g>
                <path d="M 17.671875 -18.328125 C 17.671875 -18.804688 17.5 -19.21875 17.15625 -19.5625 C 16.820312 -19.914062 16.421875 -20.101562 15.953125 -20.125 L 10.265625 -20.125 L 10.265625 -2.15625 C 10.285156 -1.632812 10.476562 -1.191406 10.84375 -0.828125 C 11.21875 -0.472656 11.664062 -0.296875 12.1875 -0.296875 L 12.5625 -0.296875 L 12.5625 0 L 6 0 L 6 -0.296875 L 6.390625 -0.296875 C 6.910156 -0.296875 7.351562 -0.472656 7.71875 -0.828125 C 8.09375 -1.191406 8.289062 -1.625 8.3125 -2.125 L 8.3125 -20.125 L 2.609375 -20.125 C 2.128906 -20.101562 1.722656 -19.914062 1.390625 -19.5625 C 1.066406 -19.21875 0.90625 -18.804688 0.90625 -18.328125 L 0.90625 -17.8125 L 0.59375 -17.796875 L 0.59375 -21.5625 C 0.894531 -21.445312 1.414062 -21.328125 2.15625 -21.203125 C 2.894531 -21.085938 3.578125 -21.03125 4.203125 -21.03125 L 14.34375 -21.03125 C 15.320312 -21.03125 16.132812 -21.101562 16.78125 -21.25 C 17.4375 -21.40625 17.832031 -21.507812 17.96875 -21.5625 L 17.96875 -17.796875 L 17.671875 -17.8125 Z M 17.671875 -18.328125 "/>
            </g>
        </g>
    </g>
    <g fill="#4d4a4b" fill-opacity="1">
        <g transform="translate(139.267231, 290.062306)">
            <g>
                <path d="M 1.984375 -7.1875 C 2.765625 -7.976562 3.78125 -8.375 5.03125 -8.375 C 6.28125 -8.375 7.296875 -7.976562 8.078125 -7.1875 C 8.867188 -6.40625 9.265625 -5.375 9.265625 -4.09375 C 9.265625 -2.820312 8.867188 -1.789062 8.078125 -1 C 7.296875 -0.21875 6.28125 0.171875 5.03125 0.171875 C 3.78125 0.171875 2.765625 -0.21875 1.984375 -1 C 1.210938 -1.789062 0.828125 -2.820312 0.828125 -4.09375 C 0.828125 -5.375 1.210938 -6.40625 1.984375 -7.1875 Z M 2.625 -1.265625 C 3.238281 -0.546875 4.039062 -0.1875 5.03125 -0.1875 C 6.03125 -0.1875 6.832031 -0.546875 7.4375 -1.265625 C 8.050781 -1.984375 8.359375 -2.929688 8.359375 -4.109375 C 8.359375 -4.878906 8.21875 -5.5625 7.9375 -6.15625 C 7.664062 -6.75 7.273438 -7.207031 6.765625 -7.53125 C 6.265625 -7.863281 5.6875 -8.03125 5.03125 -8.03125 C 4.039062 -8.03125 3.238281 -7.671875 2.625 -6.953125 C 2.019531 -6.234375 1.71875 -5.285156 1.71875 -4.109375 C 1.71875 -2.929688 2.019531 -1.984375 2.625 -1.265625 Z M 2.625 -1.265625 "/>
            </g>
        </g>
    </g>
    <g fill="#4d4a4b" fill-opacity="1">
        <g transform="translate(149.087543, 290.062306)">
            <g>
                <path d="M 6.90625 -7.171875 C 6.90625 -7.359375 6.835938 -7.519531 6.703125 -7.65625 C 6.578125 -7.789062 6.425781 -7.863281 6.25 -7.875 L 4.015625 -7.875 L 4.015625 -0.84375 C 4.023438 -0.644531 4.097656 -0.472656 4.234375 -0.328125 C 4.378906 -0.191406 4.554688 -0.125 4.765625 -0.125 L 4.921875 -0.125 L 4.921875 0 L 2.34375 0 L 2.34375 -0.125 L 2.5 -0.125 C 2.695312 -0.125 2.867188 -0.191406 3.015625 -0.328125 C 3.160156 -0.472656 3.238281 -0.640625 3.25 -0.828125 L 3.25 -7.875 L 1.015625 -7.875 C 0.828125 -7.863281 0.671875 -7.789062 0.546875 -7.65625 C 0.421875 -7.519531 0.359375 -7.359375 0.359375 -7.171875 L 0.359375 -6.96875 L 0.234375 -6.953125 L 0.234375 -8.4375 C 0.347656 -8.382812 0.550781 -8.332031 0.84375 -8.28125 C 1.132812 -8.238281 1.398438 -8.21875 1.640625 -8.21875 L 5.609375 -8.21875 C 5.992188 -8.21875 6.3125 -8.25 6.5625 -8.3125 C 6.820312 -8.375 6.976562 -8.414062 7.03125 -8.4375 L 7.03125 -6.953125 L 6.90625 -6.96875 Z M 6.90625 -7.171875 "/>
            </g>
        </g>
    </g>
    <g fill="#4d4a4b" fill-opacity="1">
        <g transform="translate(156.32973, 290.062306)">
            <g>
                <path d="M 8.40625 -0.125 L 8.5 -0.125 L 8.5 0 L 5.859375 0 L 5.859375 -0.125 L 5.96875 -0.125 C 6.132812 -0.125 6.253906 -0.175781 6.328125 -0.28125 C 6.410156 -0.382812 6.453125 -0.484375 6.453125 -0.578125 C 6.453125 -0.671875 6.4375 -0.765625 6.40625 -0.859375 L 5.65625 -2.84375 L 2.484375 -2.84375 L 1.703125 -0.84375 C 1.671875 -0.75 1.65625 -0.65625 1.65625 -0.5625 C 1.65625 -0.476562 1.695312 -0.382812 1.78125 -0.28125 C 1.863281 -0.175781 1.988281 -0.125 2.15625 -0.125 L 2.25 -0.125 L 2.25 0 L -0.109375 0 L -0.109375 -0.125 L 0 -0.125 C 0.195312 -0.125 0.390625 -0.1875 0.578125 -0.3125 C 0.765625 -0.4375 0.914062 -0.617188 1.03125 -0.859375 L 3.6875 -7.171875 C 3.976562 -7.804688 4.125 -8.207031 4.125 -8.375 L 4.234375 -8.375 L 7.375 -0.859375 C 7.476562 -0.617188 7.625 -0.4375 7.8125 -0.3125 C 8 -0.1875 8.195312 -0.125 8.40625 -0.125 Z M 2.625 -3.203125 L 5.515625 -3.203125 L 4.109375 -6.96875 Z M 2.625 -3.203125 "/>
            </g>
        </g>
    </g>
    <g fill="#4d4a4b" fill-opacity="1">
        <g transform="translate(164.67348, 290.062306)">
            <g>
                <path d="M 3.125 -0.125 L 3.28125 -0.125 L 3.28125 0 L 0.703125 0 L 0.703125 -0.125 L 0.859375 -0.125 C 1.054688 -0.125 1.226562 -0.191406 1.375 -0.328125 C 1.519531 -0.472656 1.597656 -0.648438 1.609375 -0.859375 L 1.609375 -7.375 C 1.597656 -7.570312 1.519531 -7.738281 1.375 -7.875 C 1.226562 -8.019531 1.054688 -8.09375 0.859375 -8.09375 L 0.703125 -8.09375 L 0.703125 -8.21875 L 3.28125 -8.21875 L 3.28125 -8.09375 L 3.125 -8.09375 C 2.914062 -8.09375 2.738281 -8.019531 2.59375 -7.875 C 2.445312 -7.738281 2.375 -7.570312 2.375 -7.375 L 2.375 -0.859375 C 2.375 -0.648438 2.445312 -0.472656 2.59375 -0.328125 C 2.738281 -0.191406 2.914062 -0.125 3.125 -0.125 Z M 7.84375 0 L 7.328125 0 C 6.535156 0 5.953125 -0.222656 5.578125 -0.671875 L 2.75 -4.078125 L 5.515625 -7.5625 C 5.578125 -7.632812 5.609375 -7.703125 5.609375 -7.765625 C 5.609375 -7.828125 5.597656 -7.882812 5.578125 -7.9375 C 5.515625 -8.050781 5.398438 -8.109375 5.234375 -8.109375 L 5.109375 -8.109375 L 5.109375 -8.21875 L 7.59375 -8.21875 L 7.59375 -8.109375 L 7.546875 -8.109375 C 7.023438 -8.109375 6.601562 -7.925781 6.28125 -7.5625 L 3.515625 -4.359375 L 6.71875 -0.59375 C 7.03125 -0.28125 7.40625 -0.125 7.84375 -0.125 Z M 7.84375 0 "/>
            </g>
        </g>
    </g>
    <g fill="#4d4a4b" fill-opacity="1">
        <g transform="translate(172.372698, 290.062306)">
            <g>
                <path d="M 8.625 -8.09375 L 8.4375 -8.09375 C 8.269531 -8.09375 8.125 -8.039062 8 -7.9375 C 7.882812 -7.832031 7.820312 -7.703125 7.8125 -7.546875 L 7.8125 -2.890625 C 7.8125 -1.984375 7.519531 -1.242188 6.9375 -0.671875 C 6.363281 -0.109375 5.59375 0.171875 4.625 0.171875 C 3.664062 0.171875 2.882812 -0.109375 2.28125 -0.671875 C 1.6875 -1.234375 1.390625 -1.972656 1.390625 -2.890625 L 1.390625 -7.515625 C 1.390625 -7.742188 1.289062 -7.914062 1.09375 -8.03125 C 1 -8.070312 0.894531 -8.09375 0.78125 -8.09375 L 0.59375 -8.09375 L 0.59375 -8.21875 L 2.96875 -8.21875 L 2.96875 -8.09375 L 2.78125 -8.09375 C 2.601562 -8.09375 2.457031 -8.039062 2.34375 -7.9375 C 2.226562 -7.832031 2.164062 -7.695312 2.15625 -7.53125 L 2.15625 -3.046875 C 2.15625 -2.191406 2.382812 -1.503906 2.84375 -0.984375 C 3.300781 -0.460938 3.910156 -0.203125 4.671875 -0.203125 C 5.441406 -0.203125 6.066406 -0.445312 6.546875 -0.9375 C 7.023438 -1.4375 7.265625 -2.085938 7.265625 -2.890625 L 7.265625 -7.53125 C 7.253906 -7.695312 7.191406 -7.832031 7.078125 -7.9375 C 6.960938 -8.039062 6.816406 -8.09375 6.640625 -8.09375 L 6.453125 -8.09375 L 6.453125 -8.21875 L 8.625 -8.21875 Z M 8.625 -8.09375 "/>
            </g>
        </g>
    </g>
    <g fill="#4d4a4b" fill-opacity="1">
        <g transform="translate(181.571916, 290.062306)">
            <g/>
        </g>
    </g>
    <g fill="#4d4a4b" fill-opacity="1">
        <g transform="translate(184.501603, 290.062306)">
            <g>
                <path d="M 6.1875 -5.953125 C 6.1875 -5.609375 6.113281 -5.285156 5.96875 -4.984375 C 5.707031 -4.429688 5.253906 -4.046875 4.609375 -3.828125 C 4.378906 -3.742188 4.1875 -3.703125 4.03125 -3.703125 C 3.539062 -3.703125 3.117188 -3.796875 2.765625 -3.984375 L 2.765625 -4.09375 C 3.335938 -3.96875 3.867188 -4.03125 4.359375 -4.28125 C 4.785156 -4.5 5.078125 -4.859375 5.234375 -5.359375 C 5.273438 -5.515625 5.296875 -5.660156 5.296875 -5.796875 C 5.296875 -5.941406 5.296875 -6.03125 5.296875 -6.0625 C 5.285156 -6.613281 5.140625 -7.050781 4.859375 -7.375 C 4.585938 -7.695312 4.207031 -7.859375 3.71875 -7.859375 L 2.375 -7.859375 L 2.375 -0.859375 C 2.375 -0.648438 2.445312 -0.472656 2.59375 -0.328125 C 2.738281 -0.191406 2.914062 -0.125 3.125 -0.125 L 3.28125 -0.125 L 3.28125 0 L 0.703125 0 L 0.703125 -0.125 L 0.859375 -0.125 C 1.054688 -0.125 1.226562 -0.191406 1.375 -0.328125 C 1.519531 -0.472656 1.597656 -0.648438 1.609375 -0.859375 L 1.609375 -7.421875 C 1.585938 -7.609375 1.503906 -7.765625 1.359375 -7.890625 C 1.222656 -8.023438 1.054688 -8.09375 0.859375 -8.09375 L 0.71875 -8.09375 L 0.703125 -8.21875 L 3.765625 -8.21875 C 4.515625 -8.21875 5.101562 -8.015625 5.53125 -7.609375 C 5.96875 -7.203125 6.1875 -6.648438 6.1875 -5.953125 Z M 6.1875 -5.953125 "/>
            </g>
        </g>
    </g>
    <g fill="#4d4a4b" fill-opacity="1">
        <g transform="translate(191.263322, 290.062306)">
            <g>
                <path d="M 3.125 -7.84375 L 2.375 -7.84375 L 2.375 -0.859375 C 2.375 -0.648438 2.441406 -0.472656 2.578125 -0.328125 C 2.722656 -0.191406 2.90625 -0.125 3.125 -0.125 L 3.265625 -0.125 L 3.28125 0 L 0.703125 0 L 0.703125 -0.125 L 0.859375 -0.125 C 1.054688 -0.125 1.226562 -0.191406 1.375 -0.328125 C 1.519531 -0.472656 1.597656 -0.644531 1.609375 -0.84375 L 1.609375 -7.359375 C 1.597656 -7.554688 1.519531 -7.726562 1.375 -7.875 C 1.226562 -8.019531 1.054688 -8.09375 0.859375 -8.09375 L 0.703125 -8.09375 L 0.703125 -8.21875 L 3.875 -8.21875 C 4.582031 -8.21875 5.140625 -8.019531 5.546875 -7.625 C 5.953125 -7.226562 6.15625 -6.710938 6.15625 -6.078125 C 6.15625 -5.453125 5.960938 -4.910156 5.578125 -4.453125 C 5.191406 -3.992188 4.722656 -3.765625 4.171875 -3.765625 C 4.285156 -3.710938 4.421875 -3.601562 4.578125 -3.4375 C 4.742188 -3.28125 4.890625 -3.117188 5.015625 -2.953125 C 5.679688 -1.984375 6.113281 -1.382812 6.3125 -1.15625 C 6.519531 -0.9375 6.664062 -0.785156 6.75 -0.703125 C 6.84375 -0.628906 6.9375 -0.550781 7.03125 -0.46875 C 7.132812 -0.394531 7.238281 -0.332031 7.34375 -0.28125 C 7.570312 -0.175781 7.816406 -0.125 8.078125 -0.125 L 8.078125 0 L 7.421875 0 C 7.085938 0 6.773438 -0.0546875 6.484375 -0.171875 C 6.203125 -0.296875 5.988281 -0.421875 5.84375 -0.546875 C 5.695312 -0.679688 5.566406 -0.804688 5.453125 -0.921875 C 5.347656 -1.046875 5.054688 -1.453125 4.578125 -2.140625 C 4.109375 -2.835938 3.832031 -3.234375 3.75 -3.328125 C 3.675781 -3.421875 3.597656 -3.515625 3.515625 -3.609375 C 3.265625 -3.878906 3.007812 -4.015625 2.75 -4.015625 L 2.75 -4.125 C 2.8125 -4.125 2.894531 -4.125 3 -4.125 C 3.101562 -4.125 3.226562 -4.125 3.375 -4.125 C 4.34375 -4.15625 4.953125 -4.5625 5.203125 -5.34375 C 5.253906 -5.5 5.28125 -5.644531 5.28125 -5.78125 C 5.28125 -5.925781 5.28125 -6.019531 5.28125 -6.0625 C 5.257812 -6.582031 5.117188 -7 4.859375 -7.3125 C 4.609375 -7.632812 4.265625 -7.8125 3.828125 -7.84375 C 3.640625 -7.84375 3.40625 -7.84375 3.125 -7.84375 Z M 3.125 -7.84375 "/>
            </g>
        </g>
    </g>
    <g fill="#4d4a4b" fill-opacity="1">
        <g transform="translate(199.196915, 290.062306)">
            <g>
                <path d="M 1.984375 -7.1875 C 2.765625 -7.976562 3.78125 -8.375 5.03125 -8.375 C 6.28125 -8.375 7.296875 -7.976562 8.078125 -7.1875 C 8.867188 -6.40625 9.265625 -5.375 9.265625 -4.09375 C 9.265625 -2.820312 8.867188 -1.789062 8.078125 -1 C 7.296875 -0.21875 6.28125 0.171875 5.03125 0.171875 C 3.78125 0.171875 2.765625 -0.21875 1.984375 -1 C 1.210938 -1.789062 0.828125 -2.820312 0.828125 -4.09375 C 0.828125 -5.375 1.210938 -6.40625 1.984375 -7.1875 Z M 2.625 -1.265625 C 3.238281 -0.546875 4.039062 -0.1875 5.03125 -0.1875 C 6.03125 -0.1875 6.832031 -0.546875 7.4375 -1.265625 C 8.050781 -1.984375 8.359375 -2.929688 8.359375 -4.109375 C 8.359375 -4.878906 8.21875 -5.5625 7.9375 -6.15625 C 7.664062 -6.75 7.273438 -7.207031 6.765625 -7.53125 C 6.265625 -7.863281 5.6875 -8.03125 5.03125 -8.03125 C 4.039062 -8.03125 3.238281 -7.671875 2.625 -6.953125 C 2.019531 -6.234375 1.71875 -5.285156 1.71875 -4.109375 C 1.71875 -2.929688 2.019531 -1.984375 2.625 -1.265625 Z M 2.625 -1.265625 "/>
            </g>
        </g>
    </g>
    <g fill="#4d4a4b" fill-opacity="1">
        <g transform="translate(209.017227, 290.062306)">
            <g>
                <path d="M 3.125 -8.09375 C 2.84375 -8.09375 2.625 -7.972656 2.46875 -7.734375 C 2.40625 -7.617188 2.375 -7.492188 2.375 -7.359375 L 2.375 0 C 2.375 0.65625 2.164062 1.207031 1.75 1.65625 C 1.34375 2.113281 0.835938 2.34375 0.234375 2.34375 L 0.234375 2.234375 C 0.617188 2.109375 0.941406 1.820312 1.203125 1.375 C 1.472656 0.9375 1.609375 0.46875 1.609375 -0.03125 L 1.609375 -7.359375 C 1.597656 -7.554688 1.519531 -7.726562 1.375 -7.875 C 1.226562 -8.019531 1.054688 -8.09375 0.859375 -8.09375 L 0.703125 -8.09375 L 0.703125 -8.21875 L 3.28125 -8.21875 L 3.28125 -8.09375 Z M 3.125 -8.09375 "/>
            </g>
        </g>
    </g>
    <g fill="#4d4a4b" fill-opacity="1">
        <g transform="translate(212.814101, 290.062306)">
            <g>
                <path d="M 0.859375 -0.125 C 1.054688 -0.125 1.226562 -0.191406 1.375 -0.328125 C 1.519531 -0.472656 1.597656 -0.648438 1.609375 -0.859375 L 1.609375 -7.421875 C 1.585938 -7.609375 1.503906 -7.765625 1.359375 -7.890625 C 1.222656 -8.023438 1.054688 -8.09375 0.859375 -8.09375 L 0.71875 -8.09375 L 0.703125 -8.21875 L 4.140625 -8.21875 C 4.378906 -8.21875 4.640625 -8.238281 4.921875 -8.28125 C 5.210938 -8.332031 5.414062 -8.378906 5.53125 -8.421875 L 5.53125 -6.953125 L 5.421875 -6.953125 L 5.421875 -7.15625 C 5.421875 -7.34375 5.351562 -7.503906 5.21875 -7.640625 C 5.09375 -7.773438 4.941406 -7.84375 4.765625 -7.84375 L 2.375 -7.84375 L 2.375 -4.21875 L 4.359375 -4.21875 C 4.515625 -4.226562 4.644531 -4.285156 4.75 -4.390625 C 4.863281 -4.503906 4.921875 -4.644531 4.921875 -4.8125 L 4.921875 -4.96875 L 5.03125 -4.96875 L 5.03125 -3.125 L 4.921875 -3.125 L 4.921875 -3.296875 C 4.921875 -3.453125 4.863281 -3.582031 4.75 -3.6875 C 4.644531 -3.800781 4.515625 -3.863281 4.359375 -3.875 L 2.375 -3.875 L 2.375 -0.359375 L 4.046875 -0.359375 C 4.628906 -0.359375 5.070312 -0.488281 5.375 -0.75 C 5.675781 -1.007812 5.929688 -1.394531 6.140625 -1.90625 L 6.25 -1.90625 L 5.578125 0 L 0.703125 0 L 0.703125 -0.125 Z M 0.859375 -0.125 "/>
            </g>
        </g>
    </g>
    <g fill="#4d4a4b" fill-opacity="1">
        <g transform="translate(219.57582, 290.062306)">
            <g>
                <path d="M 4.890625 0.171875 C 3.660156 0.160156 2.65625 -0.234375 1.875 -1.015625 C 1.09375 -1.796875 0.703125 -2.828125 0.703125 -4.109375 C 0.703125 -5.390625 1.09375 -6.421875 1.875 -7.203125 C 2.65625 -7.984375 3.6875 -8.375 4.96875 -8.375 C 6.007812 -8.375 6.9375 -8.109375 7.75 -7.578125 L 7.984375 -5.921875 L 7.875 -5.921875 C 7.695312 -6.597656 7.347656 -7.117188 6.828125 -7.484375 C 6.304688 -7.847656 5.6875 -8.03125 4.96875 -8.03125 C 3.9375 -8.03125 3.113281 -7.671875 2.5 -6.953125 C 1.882812 -6.242188 1.578125 -5.300781 1.578125 -4.125 C 1.578125 -2.957031 1.878906 -2.015625 2.484375 -1.296875 C 3.097656 -0.578125 3.898438 -0.207031 4.890625 -0.1875 C 5.765625 -0.1875 6.5 -0.425781 7.09375 -0.90625 C 7.71875 -1.414062 8.097656 -2.253906 8.234375 -3.421875 L 8.328125 -3.421875 L 8.1875 -1.578125 C 7.476562 -0.410156 6.378906 0.171875 4.890625 0.171875 Z M 4.890625 0.171875 "/>
            </g>
        </g>
    </g>
    <g fill="#4d4a4b" fill-opacity="1">
        <g transform="translate(228.482069, 290.062306)">
            <g>
                <path d="M 6.90625 -7.171875 C 6.90625 -7.359375 6.835938 -7.519531 6.703125 -7.65625 C 6.578125 -7.789062 6.425781 -7.863281 6.25 -7.875 L 4.015625 -7.875 L 4.015625 -0.84375 C 4.023438 -0.644531 4.097656 -0.472656 4.234375 -0.328125 C 4.378906 -0.191406 4.554688 -0.125 4.765625 -0.125 L 4.921875 -0.125 L 4.921875 0 L 2.34375 0 L 2.34375 -0.125 L 2.5 -0.125 C 2.695312 -0.125 2.867188 -0.191406 3.015625 -0.328125 C 3.160156 -0.472656 3.238281 -0.640625 3.25 -0.828125 L 3.25 -7.875 L 1.015625 -7.875 C 0.828125 -7.863281 0.671875 -7.789062 0.546875 -7.65625 C 0.421875 -7.519531 0.359375 -7.359375 0.359375 -7.171875 L 0.359375 -6.96875 L 0.234375 -6.953125 L 0.234375 -8.4375 C 0.347656 -8.382812 0.550781 -8.332031 0.84375 -8.28125 C 1.132812 -8.238281 1.398438 -8.21875 1.640625 -8.21875 L 5.609375 -8.21875 C 5.992188 -8.21875 6.3125 -8.25 6.5625 -8.3125 C 6.820312 -8.375 6.976562 -8.414062 7.03125 -8.4375 L 7.03125 -6.953125 L 6.90625 -6.96875 Z M 6.90625 -7.171875 "/>
            </g>
        </g>
    </g>
    <path stroke-linecap="butt" transform="matrix(0.75252, 0, 0, 0.75, 98.016999, 286.685871)" fill="none"
          stroke-linejoin="miter" d="M -0.00182568 0.0021723 L 55.82106 0.0021723 " stroke="#a58d4e" stroke-width="1"
          stroke-opacity="1" stroke-miterlimit="4"/>
    <path stroke-linecap="butt" transform="matrix(0.75252, 0, 0, 0.75, 235.116157, 285.935871)" fill="none"
          stroke-linejoin="miter" d="M 0.00136932 0.00217224 L 55.824255 0.00217224 " stroke="#a58d4e" stroke-width="1"
          stroke-opacity="1" stroke-miterlimit="4"/>
</svg>